<svg width="15" height="16" viewBox="0 0 15 16" fill="none" xmlns="http://www.w3.org/2000/svg">
<path id="Vector" d="M14.3081 11.6879C14.968 12.3783 15.4479 13.1887 14.338 14.5394C13.2882 15.8 12.5083 15.8 11.5784 15.8C9.29874 15.8 5.93919 12.9186 4.28942 11.2377C2.69963 9.58685 0 6.13507 0 3.70381C0 2.80335 0.389947 1.9329 1.40981 1.27256C2.45967 0.582206 3.44953 0.612221 4.25942 1.60273C4.91933 2.41315 6.68909 4.36415 5.57924 5.86493C4.82934 6.85544 4.91933 6.82542 5.63923 7.63584C6.38913 8.47627 7.16902 9.28669 8.30887 10.3072C8.93878 10.7875 8.8188 10.8775 9.95865 10.0971C11.2785 9.19665 13.6481 11.0876 14.3081 11.6879Z" fill="#F8FEFF"/>
</svg>
