<svg width="30" height="31" viewBox="0 0 30 31" fill="none" xmlns="http://www.w3.org/2000/svg">
<path id="Vector" d="M10.0012 15.3999C10.0012 12.6386 12.2392 10.3995 15.0006 10.3995C17.762 10.3995 20.0012 12.6386 20.0012 15.3999C20.0012 18.1612 17.762 20.4003 15.0006 20.4003C12.2392 20.4003 10.0012 18.1612 10.0012 15.3999ZM7.29797 15.3999C7.29797 19.6539 10.7464 23.1022 15.0006 23.1022C19.2548 23.1022 22.7032 19.6539 22.7032 15.3999C22.7032 11.1459 19.2548 7.69758 15.0006 7.69758C10.7464 7.69758 7.29797 11.1459 7.29797 15.3999ZM21.2081 7.39218C21.2077 8.38629 22.0133 9.1925 23.0074 9.1929C24.0016 9.1933 24.8078 8.38773 24.8082 7.39362C24.8086 6.39951 24.003 5.5933 23.0089 5.5929C22.0152 5.59337 21.209 6.39854 21.2081 7.39218ZM8.94036 27.6095C7.47786 27.5429 6.68295 27.2993 6.15469 27.0935C5.45434 26.8209 4.95464 26.4962 4.42926 25.9715C3.90388 25.4469 3.57866 24.9477 3.30721 24.2474C3.10128 23.7194 2.85767 22.9243 2.79119 21.4618C2.71847 19.8807 2.70395 19.4057 2.70395 15.4C2.70395 11.3943 2.71967 10.9207 2.79119 9.33822C2.85779 7.87578 3.1032 7.08222 3.30721 6.55266C3.57986 5.85234 3.9046 5.35266 4.42926 4.8273C4.95392 4.30194 5.45314 3.97674 6.15469 3.7053C6.68271 3.49938 7.47786 3.25578 8.94036 3.1893C10.5215 3.11658 10.9965 3.10206 15.0006 3.10206C19.0047 3.10206 19.4801 3.11778 21.0626 3.1893C22.5251 3.2559 23.3187 3.5013 23.8483 3.7053C24.5487 3.97674 25.0484 4.30266 25.5737 4.8273C26.0991 5.35194 26.4231 5.85234 26.6958 6.55266C26.9017 7.08066 27.1453 7.87578 27.2118 9.33822C27.2845 10.9207 27.2991 11.3943 27.2991 15.4C27.2991 19.4057 27.2845 19.8794 27.2118 21.4618C27.1452 22.9243 26.9004 23.7191 26.6958 24.2474C26.4231 24.9477 26.0984 25.4474 25.5737 25.9715C25.0491 26.4957 24.5487 26.8209 23.8483 27.0935C23.3203 27.2995 22.5251 27.5431 21.0626 27.6095C19.4815 27.6823 19.0065 27.6968 15.0006 27.6968C10.9947 27.6968 10.5211 27.6823 8.94036 27.6095ZM8.81615 0.490742C7.21925 0.563462 6.12805 0.816662 5.17509 1.18746C4.18817 1.57038 3.35269 2.0841 2.51782 2.91762C1.68295 3.75114 1.17053 4.5879 0.787592 5.57478C0.416777 6.5283 0.163567 7.61886 0.0908436 9.2157C0.0169207 10.8151 0 11.3264 0 15.3999C0 19.4734 0.0169207 19.9847 0.0908436 21.5841C0.163567 23.1811 0.416777 24.2715 0.787592 25.225C1.17053 26.2113 1.68307 27.049 2.51782 27.8822C3.35257 28.7153 4.18817 29.2283 5.17509 29.6123C6.12985 29.9831 7.21925 30.2363 8.81615 30.3091C10.4164 30.3818 10.9269 30.3999 15.0006 30.3999C19.0743 30.3999 19.5856 30.383 21.185 30.3091C22.7821 30.2363 23.8726 29.9831 24.8261 29.6123C25.8124 29.2283 26.6485 28.7157 27.4834 27.8822C28.3183 27.0487 28.8296 26.2113 29.2136 25.225C29.5844 24.2715 29.8388 23.1809 29.9104 21.5841C29.9831 19.9835 30 19.4734 30 15.3999C30 11.3264 29.9831 10.8151 29.9104 9.2157C29.8376 7.61874 29.5844 6.5277 29.2136 5.57478C28.8296 4.5885 28.3169 3.75246 27.4834 2.91762C26.6498 2.08278 25.8124 1.57038 24.8273 1.18746C23.8726 0.816662 22.7819 0.562262 21.1862 0.490742C19.5868 0.418022 19.0755 0.399902 15.0018 0.399902C10.9281 0.399902 10.4164 0.416822 8.81615 0.490742Z" fill="black"/>
</svg>
