<svg width="30" height="31" viewBox="0 0 30 31" fill="none" xmlns="http://www.w3.org/2000/svg">
<path id="Vector" d="M15 0.399902C6.71371 0.399902 0 7.11361 0 15.3999C0 23.6862 6.71371 30.3999 15 30.3999C23.2863 30.3999 30 23.6862 30 15.3999C30 7.11361 23.2863 0.399902 15 0.399902ZM22.3669 10.6761L19.9052 22.2769C19.7238 23.0995 19.2339 23.2991 18.5504 22.912L14.8004 20.1479L12.9919 21.8898C12.7923 22.0894 12.623 22.2588 12.2359 22.2588L12.502 18.4422L19.4516 12.164C19.754 11.8979 19.3851 11.7467 18.9859 12.0128L10.3972 17.4201L6.69556 16.2648C5.89113 16.0108 5.87298 15.4604 6.86492 15.0733L21.3266 9.49668C21.998 9.25474 22.5847 9.65998 22.3669 10.6761Z" fill="black"/>
</svg>
