<svg width="30" height="31" viewBox="0 0 30 31" fill="none" xmlns="http://www.w3.org/2000/svg">
<path d="M0.148995 0.876375C-0.296268 2.00512 0.31304 5.15619 1.227 6.42603C1.67226 7.06095 1.67226 7.08446 1.13326 8.77758C0.195865 11.764 0.523954 16.8199 1.78944 18.7717C2.28157 19.5477 2.65653 19.4301 3.2424 18.3013L3.7814 17.3137L3.66423 19.1949C3.59392 20.2296 3.38301 21.5935 3.19553 22.2049C2.91431 23.1455 2.91431 23.3572 3.1721 23.4512C3.68766 23.6629 4.81254 22.9339 5.91398 21.6876L6.96855 20.5118L7.13259 21.3819C7.2029 21.8522 7.2732 22.9104 7.2732 23.7099C7.2732 25.0738 7.32007 25.1914 7.78877 25.1914C8.06999 25.1914 8.70273 24.7681 9.2886 24.1567L10.2729 23.122L10.4135 24.1097C10.7416 26.2966 12.757 29.4477 14.3505 30.2707C14.9364 30.5764 15.077 30.5764 15.6629 30.2707C17.233 29.4477 18.9203 26.908 19.4828 24.4624L19.7874 23.169L20.7483 24.1802C21.3107 24.7681 21.9434 25.1914 22.2247 25.1914C22.6934 25.1914 22.7402 25.0738 22.7402 23.7099C22.7402 22.9104 22.8105 21.8522 22.8808 21.3819L23.0449 20.5118L24.0995 21.6876C25.2009 22.9339 26.3258 23.6629 26.8413 23.4512C27.0991 23.3572 27.0991 23.1455 26.8179 22.2049C26.6304 21.5935 26.4195 20.2296 26.3492 19.1949L26.232 17.3137L26.771 18.3013C27.3569 19.4301 27.7319 19.5477 28.224 18.7717C29.466 16.8434 29.8176 11.5524 28.8802 8.73055L28.388 7.22555L29.0911 5.79111C30.0988 3.72175 30.3331 0.476612 29.466 0.500128C29.3254 0.523643 28.9739 0.852859 28.7161 1.25262C28.0599 2.2873 27.1929 2.87519 26.068 3.01628C24.6619 3.20441 23.537 2.92222 22.6465 2.14621C20.4202 0.170909 17.7486 0.00630093 15.8269 1.72293L15.0067 2.4284L14.1865 1.72293C12.2648 0.00630093 9.59326 0.170909 7.36694 2.14621C6.47642 2.92222 5.35154 3.20441 3.94545 3.01628C2.82057 2.87519 1.95348 2.2873 1.29731 1.25262C0.781737 0.429581 0.359909 0.312004 0.148995 0.876375ZM12.8038 1.81699C14.0224 2.40488 14.6083 3.27495 14.4677 4.28612C14.2334 6.02626 12.3117 8.11914 10.2494 8.89515C8.89021 9.38898 6.35924 9.2714 5.02345 8.63648C2.84401 7.62532 1.32074 5.60299 1.01609 3.39253L0.875477 2.26379L1.43791 2.78113C3.26584 4.45073 6.03115 4.4037 8.04655 2.71058C9.56982 1.41723 11.304 1.11153 12.8038 1.81699ZM21.3341 2.2873C23.1152 3.53362 24.2166 4.02745 25.2478 4.02745C26.4195 4.02745 27.7553 3.53362 28.5755 2.78113L29.138 2.26379L28.9973 3.39253C28.6927 5.60299 27.1694 7.62532 24.99 8.63648C23.6542 9.2714 21.1232 9.38898 19.764 8.89515C17.7017 8.11914 15.7801 6.02626 15.5457 4.28612C15.2176 1.84051 18.9203 0.570674 21.3341 2.2873ZM15.4988 6.52009C16.0613 7.62532 18.0298 9.17734 19.5062 9.69468C20.8889 10.212 20.9123 10.2355 20.3264 10.5412C17.8658 11.8346 12.1477 11.8346 9.687 10.5412C9.10112 10.2355 9.12456 10.212 10.5072 9.69468C11.9836 9.17734 13.9521 7.62532 14.5146 6.52009C14.7021 6.19087 14.913 5.90869 15.0067 5.90869C15.1005 5.90869 15.3114 6.19087 15.4988 6.52009ZM6.05459 9.92983C6.78107 10.0709 7.78877 10.4472 8.25747 10.7529C10.1088 11.9287 11.843 12.3519 15.0067 12.3519C18.1236 12.3519 20.1155 11.8816 21.6388 10.7999C21.9903 10.5412 22.9511 10.1885 23.7479 10.0004C24.5447 9.81226 25.7399 9.29492 26.4195 8.84812C27.0991 8.40133 27.685 8.11914 27.7553 8.23672C28.1303 8.82461 28.5989 11.3878 28.5989 12.7282C28.5755 14.4683 28.0834 17.3372 27.7319 17.6899C27.4272 17.9956 26.9585 16.7258 26.7476 14.9857C26.6539 14.1156 26.4898 13.7629 26.2086 13.7158C25.9274 13.6688 25.7633 13.8804 25.6227 14.5389C25.3884 15.6676 25.3884 19.2655 25.6227 20.9586L25.7868 22.2519L24.8962 21.2878C24.4041 20.747 23.8417 19.7828 23.6542 19.1714C23.4433 18.513 23.1621 18.0192 22.9746 18.0192C22.5996 18.0192 22.1778 19.8063 21.8966 22.4636L21.7325 24.1097L21.1701 23.4042C20.8654 23.028 20.4905 22.2519 20.303 21.6641C19.9749 20.5353 19.225 20.0415 19.225 20.9586C19.225 22.0873 18.4282 25.1679 17.7955 26.5318C17.1862 27.8251 15.5223 29.6593 14.9598 29.6593C14.4443 29.6593 12.8273 27.8016 12.218 26.5082C11.5618 25.1914 10.7884 22.1344 10.7884 20.9586C10.7884 20.0885 10.0385 20.5353 9.73386 21.5935C9.56982 22.1109 9.19486 22.9104 8.89021 23.3337L8.35121 24.1097L8.04655 21.9698C7.69503 19.289 7.32007 17.8546 7.01542 17.9486C6.87481 17.9956 6.52329 18.6541 6.21863 19.4301C5.89054 20.1826 5.32811 21.1467 4.92971 21.5465L4.20323 22.2519L4.39071 20.9586C4.62506 19.289 4.62506 15.6911 4.39071 14.5389C4.2501 13.8804 4.08606 13.6688 3.80484 13.7158C3.52362 13.7629 3.35958 14.1156 3.26584 14.9857C3.1721 15.6441 2.98462 16.5847 2.82057 17.0785C2.56279 17.9016 2.49248 17.9486 2.2347 17.5724C1.81287 17.0315 1.41448 14.5624 1.41448 12.7047C1.41448 11.3643 1.88318 8.82461 2.25814 8.23672C2.32844 8.11914 2.89088 8.40133 3.54705 8.82461C4.20323 9.29492 5.2578 9.76523 6.05459 9.92983Z" fill="black"/>
</svg>
